<?xml version="1.0" standalone="no"?><!DOCTYPE svg PUBLIC "-//W3C//DTD SVG 1.1//EN" "http://www.w3.org/Graphics/SVG/1.1/DTD/svg11.dtd"><svg t="1750993271121" class="icon" viewBox="0 0 1024 1024" version="1.1" xmlns="http://www.w3.org/2000/svg" p-id="7732" xmlns:xlink="http://www.w3.org/1999/xlink" width="200" height="200"><path d="M921.81 928.396H819.385v18.06c0 30.044-22.97 54.271-51.2 54.271-28.253 0-51.223-24.343-51.223-54.272v-18.06H307.27v18.06c0 30.045-22.97 54.272-51.2 54.272-28.253 0-51.223-24.343-51.223-54.272v-18.06H102.423C64.721 928.396 0 859.812 0 819.76V421.562c0-39.936 30.51-72.425 68.236-72.425h68.259c37.701 0 68.235 32.35 68.235 72.425v289.653h614.54V421.562c0-39.936 30.51-72.425 68.235-72.425h68.26c37.701 0 68.235 32.35 68.235 72.425v398.336c0.233 39.936-64.465 108.52-102.19 108.52z m-68.26-651.683c-56.552 0-102.4 48.686-102.4 108.66V638.79H273.06V385.35c0-59.974-45.847-108.66-102.4-108.66-12.009 0-23.459-4.073-34.211 0V131.955c0.047-59.997 45.894-108.683 102.493-108.683h546.28c56.6 0 102.424 48.686 102.424 108.66v144.873c-10.752-4.19-22.062-0.117-34.071-0.117z" p-id="7733"></path></svg>