<?xml version="1.0" standalone="no"?><!DOCTYPE svg PUBLIC "-//W3C//DTD SVG 1.1//EN" "http://www.w3.org/Graphics/SVG/1.1/DTD/svg11.dtd"><svg t="1750994204776" class="icon" viewBox="0 0 1024 1024" version="1.1" xmlns="http://www.w3.org/2000/svg" p-id="8018" xmlns:xlink="http://www.w3.org/1999/xlink" width="200" height="200"><path d="M656.391787 0C798.959882 0 914.944384 116.624795 918.843311 261.914135l0.09147 7.54631v121.770006c61.605333 26.835137 102.515481 87.834478 104.916581 156.483034l0.114338 6.322893v160.073248c0 168.522829-131.065689 305.602698-294.271799 309.776036l-7.672082 0.114338H301.955315c-164.200851 0-297.759109-134.518697-301.85241-302.023917l-0.102904-7.866457v-160.073248c0-70.969618 41.344633-135.078954 105.019484-162.805927v-121.770006c0-146.352684 113.606271-265.35571 255.202493-269.357541l7.351935-0.102904z m0 107.786465H367.596781c-84.713049 0-154.253442 68.740026-157.432039 155.614064l-0.102905 6.059916v111.296643c75.657477 15.938722 131.031387 82.689266 134.324323 161.879788l0.308713 2.995657 0.137205 4.047566v12.177001c-0.068603 28.938956-22.375953 52.595496-50.548845 53.738876s-52.138144-20.843824-54.310566-49.679876l-0.160073-4.047566v-6.437232l-0.217242-2.744113-0.068603-2.778414c0-34.175638-25.840396-62.497169-59.078462-64.772496l-4.20764-0.137206h-3.96753c-35.444791 0-64.772496 28.207193-67.104992 64.486651l-0.125772 4.516353v160.073248c0 109.067051 84.3243 198.456526 190.5329 201.989571l6.380062 0.114338h420.066504c106.277203 0 193.368483-86.542458 196.821492-195.518039l0.09147-6.551569v-160.073248c0-36.348061-27.441128-66.476133-62.817316-68.865798l-4.379146-0.137205h-4.001831c-33.924095 0-61.742538 27.441128-63.194632 62.268493l0.137206 2.378231v12.177001c0.125772 29.076162-22.238748 53.007113-50.548845 54.093324s-52.343952-21.049632-54.344868-50.045758l-0.125772-4.047566v-7.649215c-0.125772-1.417792-0.182941-2.835583-0.194374-4.264808 0-83.466765 57.763575-153.212966 134.472962-169.220291v-111.262341c0-86.896906-66.967787-158.312442-151.612234-161.559642z m49.313995 534.015788c28.321531-0.125772 51.635056 22.867607 52.6984 51.8866s-20.512243 53.738876-48.765172 55.762659l-3.933228 0.14864H318.282787c-28.184325-0.080037-51.280608-22.970511-52.343952-51.875166s20.306435-53.5102 48.410723-55.751226l3.933229-0.171507z m0 0" fill="#000333" p-id="8019"></path></svg>