<?xml version="1.0" standalone="no"?><!DOCTYPE svg PUBLIC "-//W3C//DTD SVG 1.1//EN" "http://www.w3.org/Graphics/SVG/1.1/DTD/svg11.dtd"><svg t="1750993241652" class="icon" viewBox="0 0 1136 1024" version="1.1" xmlns="http://www.w3.org/2000/svg" p-id="7582" xmlns:xlink="http://www.w3.org/1999/xlink" width="221.875" height="200"><path d="M1108.992 875.008c0 33.792-8.704 50.688-25.6 50.688h-101.376v48.128c0 6.144-2.56 20.992-23.04 20.992H177.152c-20.48 0-23.04-14.336-23.04-20.48v-48.128H52.736c-16.896 0-25.6-16.896-25.6-50.688V248.832c0-25.6 8.704-29.696 29.696-29.696h79.36v640.512h863.232V219.136h79.36c20.992 0 29.696 4.096 29.696 29.696l0.512 626.176z" p-id="7583"></path><path d="M776.192 107.008H360.96c-80.896 0-117.248 43.52-117.248 86.528v560.128h650.24V193.536c-0.512-43.008-36.864-86.528-117.76-86.528z" p-id="7584"></path></svg>