<?xml version="1.0" standalone="no"?><!DOCTYPE svg PUBLIC "-//W3C//DTD SVG 1.1//EN" "http://www.w3.org/Graphics/SVG/1.1/DTD/svg11.dtd"><svg t="1750993143821" class="icon" viewBox="0 0 1136 1024" version="1.1" xmlns="http://www.w3.org/2000/svg" p-id="3415" xmlns:xlink="http://www.w3.org/1999/xlink" width="221.875" height="200"><path d="M1036.87182617 830.91113281c0 29.52026367-7.50366211 44.48364258-22.29125976 44.48364258h-88.98925782v42.37426758c-0.12084961 5.57006836-2.31811523 18.30322266-20.22583007 18.30322265H217.7421875c-17.90771484 0-20.12695313-12.78808594-20.23681641-18.18237304v-42.49511719h-88.98925781c-14.765625 0-22.29125977-14.96337891-22.29125976-44.48364258V280.75976562c0-22.63183594 7.69042969-26.2902832 26.31225586-26.2902832h69.63134765v563.09326172H941.01611328V254.46948242h69.64233399c18.53393555 0 26.26831055 3.65844727 26.26831054 26.2902832z m0 0" fill="#DD4D41" p-id="3416"></path><path d="M772.52978516 112.14160156H350.94042969c-82.12280273 0-118.9050293 44.01123047-118.9050293 87.6928711V767.98144531h659.38842774V199.87841797c0-43.64868164-36.81518555-87.73681641-118.89404297-87.73681641zM493.94946289 640.88061523L302.10620117 447.22460937l72.12524414-72.13623046 119.75097657 119.75097656 255.59692382-255.49804688 71.74072266 74.16870118z" fill="#DD4D41" p-id="3417"></path></svg>