<?xml version="1.0" standalone="no"?><!DOCTYPE svg PUBLIC "-//W3C//DTD SVG 1.1//EN" "http://www.w3.org/Graphics/SVG/1.1/DTD/svg11.dtd"><svg t="1750993198221" class="icon" viewBox="0 0 2336 1024" version="1.1" xmlns="http://www.w3.org/2000/svg" p-id="6302" xmlns:xlink="http://www.w3.org/1999/xlink" width="456.25" height="200"><path d="M2308.8875 877.5c0 33.425-8.4875 50.375-25.1875 50.375h-100.7375v47.95c-0.125 6.25-2.6125 20.725-22.8875 20.725H176.25c-20.2625 0-22.775-14.5-22.9-20.625v-48.15H52.625c-16.7 0-25.175-16.95-25.175-50.3625V254.7375C27.5 229.1 36.25 225 57.2375 225h78.75v637.325h2064.375V225h78.75c20.9875 0 29.7625 4.125 29.7625 29.7625z m0 0" fill="#8a8a8a" p-id="6303"></path><path d="M1088.1 163.9125c-4.2875-36.9125-30.175-71.3625-81.25-75.425-4.4625-0.3625-17.9125-1.0875-17.9125-1.0875l-630.5875-0.075c-86.125 0-124.675 50.6125-124.675 96.3875v595.7h854.425V180.85s0.2-15.35 0-16.9375zM602.9625 605L438.925 439.4375l61.675-61.6625 102.4125 102.4125L821.5 261.7l61.375 63.425zM2103.75 163.9125c-4.2875-36.9125-30.175-71.3625-81.3125-75.425-4.4625-0.3625-17.9125-1.0875-17.9125-1.0875l-630.5875-0.075c-86.125 0-124.675 50.6125-124.675 96.3875v595.7H2103.75V180.85s0.175-15.35 0-16.9375z m-485.1625 439.2375l-164.0375-165.5875 61.7-61.6625 102.425 102.4125 218.45-218.4875 61.375 63.4125z" fill="#8a8a8a" p-id="6304"></path></svg>